<svg width="26" height="47" viewBox="0 0 26 47" fill="none" xmlns="http://www.w3.org/2000/svg">
<path d="M13.7534 7.12672e-06C14.3057 5.75396e-06 14.7534 0.44772 14.7534 1L14.7534 10C14.7534 10.5523 14.3057 11 13.7534 11C13.2012 11 12.7534 10.5523 12.7534 10L12.7534 2.00001L4.75342 2.00003C4.20114 2.00003 3.75342 1.55232 3.75342 1.00003C3.75342 0.447747 4.20113 3.08698e-05 4.75342 2.9497e-05L13.7534 7.12672e-06ZM25.4258 46.485C14.9418 48.3199 5.85701 42.6671 2.44181 33.538C-0.978235 24.396 1.34201 11.9973 13.0463 0.292902L14.4605 1.70711C3.16483 13.0029 1.23507 24.6043 4.31502 32.8373C7.39983 41.0832 15.565 46.1804 25.081 44.515L25.4258 46.485Z" fill="#F0FFD9"/>
</svg>
