<svg width="25" height="47" viewBox="0 0 25 47" fill="none" xmlns="http://www.w3.org/2000/svg">
<path d="M12 7.12672e-06C11.4477 5.75396e-06 11 0.44772 11 1L11 10C11 10.5523 11.4477 11 12 11C12.5523 11 13 10.5523 13 10L13 2.00001L21 2.00003C21.5523 2.00003 22 1.55232 22 1.00003C22 0.447747 21.5523 3.08698e-05 21 2.9497e-05L12 7.12672e-06ZM0.327608 46.485C10.8116 48.3199 19.8964 42.6671 23.3116 33.538C26.7317 24.396 24.4114 11.9973 12.7071 0.292902L11.2929 1.70711C22.5886 13.0029 24.5183 24.6043 21.4384 32.8373C18.3536 41.0832 10.1884 46.1804 0.672392 44.515L0.327608 46.485Z" fill="#F0FFD9"/>
</svg>
