<svg width="25" height="47" viewBox="0 0 25 47" fill="none" xmlns="http://www.w3.org/2000/svg">
<path d="M12 47.0002C11.4477 47.0002 11 46.5525 11 46.0002L11 37.0002C11 36.448 11.4477 36.0002 12 36.0002C12.5523 36.0002 13 36.4479 13 37.0002L13 45.0002L21 45.0002C21.5523 45.0002 22 45.4479 22 46.0002C22 46.5525 21.5523 47.0002 21 47.0002L12 47.0002ZM0.327608 0.515212C10.8116 -1.31962 19.8964 4.33313 23.3116 13.4622C26.7317 22.6043 24.4114 35.003 12.7071 46.7073L11.2929 45.2931C22.5886 33.9974 24.5183 22.396 21.4384 14.163C18.3536 5.91705 10.1884 0.819856 0.672392 2.48527L0.327608 0.515212Z" fill="#F0FFD9"/>
</svg>
