<svg width="26" height="47" viewBox="0 0 26 47" fill="none" xmlns="http://www.w3.org/2000/svg">
<path d="M13.7534 47.0002C14.3057 47.0002 14.7534 46.5525 14.7534 46.0002L14.7534 37.0002C14.7534 36.448 14.3057 36.0002 13.7534 36.0002C13.2012 36.0002 12.7534 36.4479 12.7534 37.0002L12.7534 45.0002L4.75342 45.0002C4.20114 45.0002 3.75342 45.4479 3.75342 46.0002C3.75342 46.5525 4.20113 47.0002 4.75342 47.0002L13.7534 47.0002ZM25.4258 0.515212C14.9418 -1.31962 5.85701 4.33313 2.44181 13.4622C-0.978235 22.6043 1.34201 35.003 13.0463 46.7073L14.4605 45.2931C3.16483 33.9974 1.23507 22.396 4.31502 14.163C7.39983 5.91705 15.565 0.819856 25.081 2.48527L25.4258 0.515212Z" fill="#F0FFD9"/>
</svg>
