<svg width="23" height="54" viewBox="0 0 23 54" fill="none" xmlns="http://www.w3.org/2000/svg">
<path d="M10.8262 51.9848C10.2823 51.8888 9.91924 51.3701 10.0152 50.8262L11.5793 41.9632C11.6753 41.4193 12.194 41.0562 12.7379 41.1522C13.2817 41.2481 13.6448 41.7668 13.5489 42.3107L12.1586 50.189L20.0368 51.5793C20.5807 51.6753 20.9438 52.194 20.8478 52.7378C20.7519 53.2817 20.2331 53.6448 19.6893 53.5488L10.8262 51.9848ZM0 0C11.395 -2.12548e-08 19.4143 9.52296 22.0352 20.5181C24.6635 31.544 22.0025 44.5189 11.5735 51.8192L10.4265 50.1808C19.9975 43.4811 22.5865 31.456 20.0898 20.9819C17.5857 10.477 10.105 2 0 2L0 0Z" fill="#F0FFD9"/>
</svg>
