<svg width="247" height="270" viewBox="0 0 247 270" fill="none" xmlns="http://www.w3.org/2000/svg">
<g clip-path="url(#clip0_2003_99)">
<path d="M209.824 73.7855C199.205 61.275 193.28 41.7494 186.619 29.4151C171.933 4.2399 150.322 13.1272 150.322 13.1272C150.322 13.1272 123.017 -6.94907 91.1717 2.55494C59.3267 12.059 47.7296 44.4695 44.8936 60.0856C42.0466 75.7018 31.9115 85.7784 15.5878 117C-10.1016 166.161 25.6898 208.406 96.3492 207.844L156.049 207.855C262.126 201.534 251.892 123.376 209.824 73.7855Z" fill="#007ABE"/>
<path d="M99.3279 135.832V169.641C99.3279 169.641 88.4014 184.993 59.3154 190.047C59.3154 190.047 76.7604 201.479 124.841 201.479C158.39 201.479 187.696 190.047 187.696 190.047C187.696 190.047 150.443 182.272 147.739 169.641V135.92" fill="white"/>
<path d="M99.3281 135.832C99.3281 135.832 104.703 158.474 123.533 158.474C132.152 158.474 142.671 150.313 147.739 141.69V135.92C147.728 135.92 127.963 148.915 99.3281 135.832Z" fill="#007ABE"/>
<path d="M176.033 60.4821C176.033 60.4821 182.496 141.459 124.336 141.459C66.1746 141.459 70.8463 60.4821 70.8463 60.4821C70.8463 60.4821 68.0433 12.3232 126.303 12.3232C180.54 12.3232 176.033 60.4821 176.033 60.4821Z" fill="white"/>
<path d="M123.852 54.8545C121.478 54.8545 119.301 53.5 118.422 51.3084C118.136 50.5926 117.993 49.8327 117.993 49.0728V40.0974C117.993 39.4256 118.543 38.875 119.213 38.875C119.884 38.875 120.433 39.4256 120.433 40.0974V49.0728C120.433 49.5243 120.521 49.9759 120.686 50.4054C121.291 51.9251 123.127 52.7401 124.852 52.2886L127.48 51.5837C128.139 51.4075 128.799 51.804 128.975 52.4537C129.15 53.1035 128.766 53.7753 128.106 53.9515L125.479 54.6563C124.929 54.7885 124.391 54.8545 123.852 54.8545Z" fill="#007ABE"/>
<path d="M101.032 38.9519C103.697 38.9519 105.857 36.7874 105.857 34.1173C105.857 31.4472 103.697 29.2827 101.032 29.2827C98.3666 29.2827 96.2061 31.4472 96.2061 34.1173C96.2061 36.7874 98.3666 38.9519 101.032 38.9519Z" fill="#007ABE"/>
<path d="M145.968 38.9519C148.633 38.9519 150.794 36.7874 150.794 34.1173C150.794 31.4472 148.633 29.2827 145.968 29.2827C143.303 29.2827 141.143 31.4472 141.143 34.1173C141.143 36.7874 143.303 38.9519 145.968 38.9519Z" fill="#007ABE"/>
<path d="M123.5 95.9653C113.662 95.9653 106.286 91.417 105.978 91.2188C105.407 90.8664 105.231 90.1065 105.593 89.5339C105.945 88.9612 106.693 88.785 107.275 89.1484C107.341 89.1925 114.398 93.5205 123.511 93.5205C132.624 93.5205 139.67 89.1925 139.747 89.1484C140.329 88.796 141.077 88.9722 141.429 89.5339C141.78 90.1065 141.616 90.8554 141.044 91.2188C140.714 91.417 133.338 95.9653 123.5 95.9653Z" fill="#007ABE"/>
<path d="M73.2212 80.3603C68.7033 84.0716 60.459 80.4814 57.7658 74.8869C55.0837 69.2924 54.3692 60.4382 60.8217 57.707C67.2853 54.9868 71.1216 59.5682 71.1216 59.5682L73.2212 80.3603Z" fill="white"/>
<path d="M173.78 80.36C178.298 84.0713 186.542 80.4702 189.236 74.8757C191.929 69.2812 192.632 60.4269 186.18 57.6958C179.716 54.9756 175.88 59.5569 175.88 59.5569L173.78 80.36Z" fill="white"/>
<path d="M151.113 16.6293C121.884 9.98861 103.647 15.1646 91.7534 23.1268C81.4425 30.0319 73.3411 36.8267 70.9118 58.4338C69.6916 53.5992 70.9118 27.7963 89.9507 14.3607C108.088 2.91842 118.718 2.56601 151.113 13.1273C178.462 27.7412 176.395 54.4912 176.395 54.4912C172.46 25.6378 151.113 16.6293 151.113 16.6293Z" fill="#007ABE"/>
<path d="M188.773 190.036C166.667 185.686 157.675 178.638 148.761 169.63V162.857H123.511H98.2504V169.63C89.3355 178.638 80.3327 185.675 58.2379 190.036C15.7741 198.538 0 237.05 0 270H123.5H247C247 237.05 231.226 198.538 188.773 190.036Z" fill="#9DCF75"/>
<path d="M123.5 162.868C123.5 198.582 123.5 234.285 123.5 270" stroke="#F0FFD9" stroke-width="7.113" stroke-miterlimit="10"/>
<path d="M50.6416 235.453C50.6416 246.972 50.6416 258.481 50.6416 270" stroke="#F0FFD9" stroke-width="3.5565" stroke-miterlimit="10"/>
<path d="M196.357 235.453C196.357 246.972 196.357 258.481 196.357 270" stroke="#F0FFD9" stroke-width="3.5565" stroke-miterlimit="10"/>
</g>
<defs>
<clipPath id="clip0_2003_99">
<rect width="247" height="270" fill="white"/>
</clipPath>
</defs>
</svg>
